<?xml version="1.0" standalone="no"?>
<!DOCTYPE svg PUBLIC "-//W3C//DTD SVG 20010904//EN"
 "http://www.w3.org/TR/2001/REC-SVG-20010904/DTD/svg10.dtd">
<svg version="1.0" xmlns="http://www.w3.org/2000/svg"
 width="500.000000pt" height="500.000000pt" viewBox="0 0 500.000000 500.000000"
 preserveAspectRatio="xMidYMid meet">

<g transform="translate(0.000000,500.000000) scale(0.100000,-0.100000)"
fill="#000000" stroke="none">
<path d="M3215 3806 c-137 -37 -242 -94 -334 -182 l-66 -64 70 35 c138 69 244
70 285 2 11 -18 20 -49 20 -70 0 -34 -2 -37 -19 -28 -10 6 -24 24 -29 40 -21
60 -98 77 -186 42 l-30 -12 31 -19 c17 -10 34 -23 37 -29 5 -8 -147 -11 -529
-11 l-537 0 -29 -29 -29 -29 0 -242 0 -242 -64 -84 c-68 -91 -136 -205 -161
-269 -15 -39 -15 -39 2 -15 65 91 136 182 176 225 l46 50 1 -29 c0 -21 -14
-45 -48 -85 -115 -132 -197 -286 -234 -436 -25 -100 -16 -153 29 -183 60 -39
295 -14 435 46 l63 27 575 5 c477 4 581 8 610 20 32 14 -19 15 -530 20 l-565
5 565 3 c493 2 568 4 588 18 12 8 22 22 22 31 0 9 -43 85 -95 169 -92 149 -94
153 -80 181 12 22 15 77 15 269 0 234 1 242 25 303 14 34 32 92 41 129 16 67
21 213 9 267 l-6 30 35 -39 c77 -84 100 -238 57 -376 -11 -35 -19 -65 -17 -67
5 -6 86 144 110 203 54 140 60 267 16 338 -39 64 -84 90 -159 93 -36 1 -88 -4
-116 -11z m-222 -408 c-56 -192 -178 -412 -341 -614 l-67 -83 -307 -1 c-295 0
-309 1 -328 20 -19 19 -20 33 -20 355 0 322 1 336 20 355 19 19 33 20 539 20
l520 0 -16 -52z m136 -177 c-34 -103 -112 -263 -195 -398 l-75 -123 -65 0 -64
0 61 77 c139 175 254 375 313 543 39 110 41 111 44 36 2 -50 -3 -86 -19 -135z
m5 -502 c-15 -17 -33 -19 -136 -19 l-120 0 55 63 c58 67 165 209 194 258 18
30 18 29 21 -127 2 -135 0 -159 -14 -175z m-1247 -70 c7 -7 -19 -58 -83 -161
-133 -214 -134 -211 78 -219 l153 -5 -140 -3 -140 -3 40 -19 40 -18 -51 -1
c-63 0 -99 25 -107 72 -13 84 57 290 145 426 l43 66 6 -62 c3 -35 11 -68 16
-73z m538 -106 c-38 -36 -107 -94 -152 -130 l-81 -63 -174 2 c-212 4 -208 -2
-113 151 l66 107 262 0 262 -1 -70 -66z m757 -47 c55 -88 65 -112 57 -127 -9
-18 -30 -19 -451 -19 l-441 0 69 52 c38 29 105 87 149 130 l80 78 235 -3 235
-2 67 -109z"/>
<path d="M1505 2248 c-9 -29 -19 -91 -22 -138 -5 -78 -3 -87 18 -114 22 -28
24 -29 98 -23 61 4 221 40 221 50 0 1 -51 2 -112 2 -133 0 -162 6 -185 42 -20
30 -22 149 -4 197 7 16 9 31 7 33 -3 3 -12 -19 -21 -49z"/>
<path d="M1913 1836 c-20 -20 -23 -35 -23 -100 0 -61 3 -76 15 -76 8 0 15 -7
15 -15 0 -11 12 -15 50 -15 38 0 50 4 50 15 0 8 7 15 15 15 8 0 15 9 15 20 0
11 -5 20 -11 20 -6 0 -13 -9 -16 -20 -4 -17 -14 -20 -54 -20 l-49 0 0 80 0 80
50 0 c38 0 50 -4 50 -15 0 -8 7 -15 15 -15 8 0 15 9 15 20 0 11 -7 20 -15 20
-8 0 -15 7 -15 15 0 26 -80 19 -107 -9z"/>
<path d="M2090 1760 c0 -82 3 -100 15 -100 8 0 15 -7 15 -15 0 -11 12 -15 50
-15 38 0 50 4 50 15 0 8 7 15 15 15 12 0 15 18 15 100 0 82 -3 100 -15 100
-12 0 -15 -18 -15 -100 l0 -100 -50 0 -50 0 0 100 c0 82 -3 100 -15 100 -12 0
-15 -18 -15 -100z"/>
<path d="M2303 1836 c-26 -27 -31 -76 -8 -76 8 0 15 -7 15 -15 0 -11 12 -15
50 -15 l50 0 0 -35 0 -35 -50 0 c-44 0 -50 3 -50 21 0 24 -23 21 -28 -4 -2
-10 3 -17 12 -17 9 0 16 -7 16 -15 0 -11 12 -15 50 -15 38 0 50 4 50 15 0 8 7
15 15 15 10 0 15 11 15 35 0 24 -5 35 -15 35 -8 0 -15 7 -15 15 0 11 -12 15
-50 15 -49 0 -50 1 -50 30 0 29 1 30 50 30 38 0 50 -4 50 -15 0 -8 7 -15 15
-15 8 0 15 9 15 20 0 11 -7 20 -15 20 -8 0 -15 7 -15 15 0 26 -80 19 -107 -9z"/>
<path d="M2510 1845 c0 -8 -7 -15 -15 -15 -12 0 -15 -16 -15 -85 0 -69 3 -85
15 -85 8 0 15 -7 15 -15 0 -11 12 -15 50 -15 38 0 50 4 50 15 0 8 7 15 16 15
9 0 14 7 12 17 -5 25 -28 28 -28 4 0 -18 -6 -21 -50 -21 l-50 0 0 80 0 80 50
0 c38 0 50 -4 50 -15 0 -8 7 -15 15 -15 22 0 19 18 -7 46 -28 28 -108 35 -108
9z"/>
<path d="M2750 1745 c0 -94 3 -115 14 -115 11 0 16 14 18 47 3 49 25 71 35 34
3 -12 12 -21 19 -21 8 0 14 -7 14 -15 0 -8 7 -15 15 -15 8 0 15 -7 15 -15 0
-8 7 -15 15 -15 8 0 15 7 15 15 0 8 -7 15 -15 15 -8 0 -15 9 -15 20 0 11 -7
20 -15 20 -8 0 -15 7 -15 15 0 8 7 15 15 15 8 0 15 7 15 15 0 8 7 15 15 15 10
0 15 11 15 35 0 24 -5 35 -15 35 -8 0 -15 7 -15 15 0 12 -14 15 -65 15 l-65 0
0 -115z m130 45 c0 -29 -1 -30 -50 -30 -49 0 -50 1 -50 30 0 29 1 30 50 30 49
0 50 -1 50 -30z"/>
<path d="M2950 1745 l0 -115 65 0 c51 0 65 3 65 15 0 8 7 15 15 15 12 0 15 15
15 76 0 65 -3 80 -22 100 -19 19 -33 24 -80 24 l-58 0 0 -115z m130 -5 l0 -80
-50 0 -50 0 0 80 0 80 50 0 50 0 0 -80z"/>
</g>
</svg>
