<?xml version="1.0" encoding="UTF-8"?>
<svg version="1.1" xmlns="http://www.w3.org/2000/svg" width="1024" height="1024">
<path d="M0 0 C337.92 0 675.84 0 1024 0 C1024 337.92 1024 675.84 1024 1024 C686.08 1024 348.16 1024 0 1024 C0 686.08 0 348.16 0 0 Z " fill="#3B6476" transform="translate(0,0)"/>
<path d="M0 0 C84.48 0 168.96 0 256 0 C256 1.98 256 3.96 256 6 C257.98 6 259.96 6 262 6 C262.02341249 25.98496835 262.04102008 45.9699339 262.05181217 65.95491314 C262.05695743 75.23532763 262.06396625 84.51573357 262.07543945 93.79614258 C262.08544053 101.88967562 262.09186629 109.98320247 262.09408849 118.07674152 C262.09538642 122.35788256 262.09841373 126.63900588 262.10573006 130.92014122 C262.11257605 134.95922613 262.11459971 138.99828624 262.11310768 143.0373764 C262.11338019 144.5106323 262.11533398 145.98388913 262.11920547 147.45713997 C262.1242775 149.48888648 262.12294989 151.52054269 262.12025452 153.55229187 C262.12163721 155.24885186 262.12163721 155.24885186 262.12304783 156.97968578 C261.94910749 162.66279952 261.43607903 168.33097257 261 174 C172.56 174 84.12 174 -7 174 C-7 118.89 -7 63.78 -7 7 C-4.69 7 -2.38 7 0 7 C0 4.69 0 2.38 0 0 Z " fill="#C7373F" transform="translate(166,374)"/>
<path d="M0 0 C1.20739979 0.00322913 2.41479959 0.00645826 3.65878725 0.00978523 C6.99281113 0.01973063 10.32675688 0.03426348 13.66075087 0.05076802 C17.26253984 0.0674683 20.86434728 0.07820393 24.46615601 0.0896759 C30.70079627 0.11034439 36.93541271 0.13476465 43.17002869 0.16175652 C52.18415928 0.20077643 61.19830391 0.23410182 70.21246201 0.26605178 C84.83847608 0.31804651 99.46446866 0.37462596 114.0904541 0.43409729 C128.29552372 0.49184728 142.50059911 0.54743264 156.70568848 0.60011292 C157.58176339 0.60336263 158.4578383 0.60661235 159.36046094 0.60996055 C163.75561268 0.62625062 168.15076458 0.64249821 172.54591656 0.65872467 C208.98949991 0.79332565 245.43305124 0.93537087 281.87658691 1.08229065 C281.87658691 3.72229065 281.87658691 6.36229065 281.87658691 9.08229065 C283.85658691 9.08229065 285.83658691 9.08229065 287.87658691 9.08229065 C287.87658691 12.71229065 287.87658691 16.34229065 287.87658691 20.08229065 C290.51658691 20.08229065 293.15658691 20.08229065 295.87658691 20.08229065 C296.20658691 19.09229065 296.53658691 18.10229065 296.87658691 17.08229065 C297.53658691 17.08229065 298.19658691 17.08229065 298.87658691 17.08229065 C299.20658691 14.11229065 299.53658691 11.14229065 299.87658691 8.08229065 C300.20658691 8.08229065 300.53658691 8.08229065 300.87658691 8.08229065 C300.87658691 12.37229065 300.87658691 16.66229065 300.87658691 21.08229065 C302.85658691 21.08229065 304.83658691 21.08229065 306.87658691 21.08229065 C306.87658691 23.39229065 306.87658691 25.70229065 306.87658691 28.08229065 C308.85658691 28.08229065 310.83658691 28.08229065 312.87658691 28.08229065 C312.87658691 36.00229065 312.87658691 43.92229065 312.87658691 52.08229065 C310.89658691 52.08229065 308.91658691 52.08229065 306.87658691 52.08229065 C306.87658691 62.97229065 306.87658691 73.86229065 306.87658691 85.08229065 C304.89658691 85.08229065 302.91658691 85.08229065 300.87658691 85.08229065 C300.87658691 87.06229065 300.87658691 89.04229065 300.87658691 91.08229065 C259.23574266 91.1051553 217.59489914 91.122788 175.95404986 91.13335598 C171.04338186 91.13460676 166.13271388 91.13590107 161.2220459 91.13722229 C160.24437718 91.1374846 159.26670846 91.13774691 158.25941341 91.13801717 C142.40739746 91.14237424 126.55538511 91.15026198 110.70337129 91.15944345 C94.45039834 91.16877897 78.19742728 91.17434604 61.94445175 91.17637914 C51.90706146 91.17775458 41.86968137 91.1821063 31.83229422 91.19020712 C24.95905052 91.19547333 18.08581213 91.19709523 11.21256656 91.19579203 C7.24088807 91.19514845 3.26922746 91.19616836 -0.70244789 91.20149612 C-4.3324227 91.20633025 -7.96236744 91.20662921 -11.59234358 91.20318954 C-13.54013861 91.20256093 -15.48793324 91.20690254 -17.43572325 91.21137196 C-19.14731535 91.20838539 -19.14731535 91.20838539 -20.89348507 91.20533848 C-21.88645373 91.2057182 -22.8794224 91.20609792 -23.90248102 91.20648915 C-26.12341309 91.08229065 -26.12341309 91.08229065 -27.12341309 90.08229065 C-27.16405141 88.4161195 -27.16613409 86.7484097 -27.12341309 85.08229065 C-30.09341309 85.08229065 -33.06341309 85.08229065 -36.12341309 85.08229065 C-36.12341309 74.52229065 -36.12341309 63.96229065 -36.12341309 53.08229065 C-38.10341309 53.08229065 -40.08341309 53.08229065 -42.12341309 53.08229065 C-42.12341309 44.83229065 -42.12341309 36.58229065 -42.12341309 28.08229065 C-39.15341309 28.08229065 -36.18341309 28.08229065 -33.12341309 28.08229065 C-33.12341309 25.77229065 -33.12341309 23.46229065 -33.12341309 21.08229065 C-30.81341309 21.08229065 -28.50341309 21.08229065 -26.12341309 21.08229065 C-26.12341309 17.12229065 -26.12341309 13.16229065 -26.12341309 9.08229065 C-24.14341309 9.08229065 -22.16341309 9.08229065 -20.12341309 9.08229065 C-20.12341309 6.44229065 -20.12341309 3.80229065 -20.12341309 1.08229065 C-13.38298045 0.05352624 -6.81091244 -0.04135153 0 0 Z " fill="#091E3B" transform="translate(154.1234130859375,554.9177093505859)"/>
<path d="M0 0 C46.53 0 93.06 0 141 0 C141 3.3 141 6.6 141 10 C143.31 10 145.62 10 148 10 C148 11.98 148 13.96 148 16 C151.96 16 155.92 16 160 16 C160 18.31 160 20.62 160 23 C162.31 23 164.62 23 167 23 C167 24.98 167 26.96 167 29 C168.65 29 170.3 29 172 29 C172 69.26 172 109.52 172 151 C170.35 151 168.7 151 167 151 C167 152.65 167 154.3 167 156 C164.03 156.99 164.03 156.99 161 158 C160.67 159.65 160.34 161.3 160 163 C158.35 163.33 156.7 163.66 155 164 C154.67 165.98 154.34 167.96 154 170 C152.02 170 150.04 170 148 170 C148 171.98 148 173.96 148 176 C146.02 176.33 144.04 176.66 142 177 C141.67 178.65 141.34 180.3 141 182 C94.47 182 47.94 182 0 182 C0 121.94 0 61.88 0 0 Z " fill="#FDC150" transform="translate(729,406)"/>
<path d="M0 0 C46.53 0 93.06 0 141 0 C141.33 0.99 141.66 1.98 142 3 C143.98 3.33 145.96 3.66 148 4 C148.33 5.98 148.66 7.96 149 10 C150.98 10.66 152.96 11.32 155 12 C155.33 13.65 155.66 15.3 156 17 C159.3 17 162.6 17 166 17 C167.26237731 19.52475462 167.09856404 21.31200466 167.0625 24.125 C167.05347656 25.03507812 167.04445313 25.94515625 167.03515625 26.8828125 C167.01775391 27.93082031 167.01775391 27.93082031 167 29 C168.4540625 28.9690625 168.4540625 28.9690625 169.9375 28.9375 C173 29 173 29 174 30 C174.04080783 31.99958364 174.04254356 34.00045254 174 36 C175.98 36 177.96 36 180 36 C180 50.85 180 65.7 180 81 C175.71 81 171.42 81 167 81 C167 84.96 167 88.92 167 93 C165.02 93 163.04 93 161 93 C161 95.31 161 97.62 161 100 C165.29 100 169.58 100 174 100 C174 101.98 174 103.96 174 106 C175.98 106 177.96 106 180 106 C180 131.08 180 156.16 180 182 C158.88 182 137.76 182 116 182 C116 163.19 116 144.38 116 125 C114.02 125 112.04 125 110 125 C110 123.02 110 121.04 110 119 C93.17 119 76.34 119 59 119 C59 140.12 59 161.24 59 183 C39.53 183 20.06 183 0 183 C0 122.61 0 62.22 0 0 Z " fill="#FCC44F" transform="translate(524,406)"/>
<path d="M0 0 C84.48 0 168.96 0 256 0 C256 1.98 256 3.96 256 6 C257.98 6 259.96 6 262 6 C262.02341249 25.98496835 262.04102008 45.9699339 262.05181217 65.95491314 C262.05695743 75.23532763 262.06396625 84.51573357 262.07543945 93.79614258 C262.08544053 101.88967562 262.09186629 109.98320247 262.09408849 118.07674152 C262.09538642 122.35788256 262.09841373 126.63900588 262.10573006 130.92014122 C262.11257605 134.95922613 262.11459971 138.99828624 262.11310768 143.0373764 C262.11338019 144.5106323 262.11533398 145.98388913 262.11920547 147.45713997 C262.1242775 149.48888648 262.12294989 151.52054269 262.12025452 153.55229187 C262.12163721 155.24885186 262.12163721 155.24885186 262.12304783 156.97968578 C261.94910749 162.66279952 261.43607903 168.33097257 261 174 C172.56 174 84.12 174 -7 174 C-7 118.89 -7 63.78 -7 7 C-4.69 7 -2.38 7 0 7 C0 4.69 0 2.38 0 0 Z M12 13 C12 15.97 12 18.94 12 22 C9.69 22 7.38 22 5 22 C5 64.9 5 107.8 5 152 C7.64 152 10.28 152 13 152 C13 154.97 13 157.94 13 161 C62.5 161 112 161 163 161 C163 157.37 163 153.74 163 150 C165.64 150 168.28 150 171 150 C171 108.09 171 66.18 171 23 C168.36 23 165.72 23 163 23 C163 19.7 163 16.4 163 13 C113.17 13 63.34 13 12 13 Z " fill="#F9EBD7" transform="translate(166,374)"/>
<path d="M0 0 C48.18 0 96.36 0 146 0 C146 1.98 146 3.96 146 6 C148.64 6 151.28 6 154 6 C154 7.98 154 9.96 154 12 C155.98 12 157.96 12 160 12 C160 14.31 160 16.62 160 19 C163.96 19 167.92 19 172 19 C172 21.31 172 23.62 172 26 C173.98 26 175.96 26 178 26 C178 29.63 178 33.26 178 37 C180.31 36.34 182.62 35.68 185 35 C185 37.97 185 40.94 185 44 C187.31 44 189.62 44 192 44 C192 63.14 192 82.28 192 102 C190.02 102 188.04 102 186 102 C186 106.29 186 110.58 186 115 C187.98 115 189.96 115 192 115 C192 136.45 192 157.9 192 180 C193.98 180 195.96 180 198 180 C198 122.58 198 65.16 198 6 C203.94 6.495 203.94 6.495 210 7 C210 4.69 210 2.38 210 0 C256.86 0 303.72 0 352 0 C352 2.31 352 4.62 352 7 C354.64 7 357.28 7 360 7 C360 9.31 360 11.62 360 14 C363.63 14 367.26 14 371 14 C371 17.3 371 20.6 371 24 C372.98 24 374.96 24 377 24 C377 26.64 377 29.28 377 32 C379.31 32 381.62 32 384 32 C384 33.98 384 35.96 384 38 C386.64 38 389.28 38 392 38 C392 80.24 392 122.48 392 166 C389.36 166 386.72 166 384 166 C384 168.31 384 170.62 384 173 C381.69 173 379.38 173 377 173 C377 174.98 377 176.96 377 179 C375.02 179 373.04 179 371 179 C371 183.29 371 187.58 371 192 C368.69 192 366.38 192 364 192 C364 193.98 364 195.96 364 198 C359.71 198 355.42 198 351 198 C351 200.64 351 203.28 351 206 C333.1624735 206.02339175 315.32495099 206.04100997 297.48741245 206.05181217 C289.20457508 206.0569618 280.92174726 206.06397906 272.63891602 206.07543945 C265.4170587 206.08542706 258.1952083 206.09186312 250.97334427 206.09408849 C247.15175675 206.09538868 243.33018902 206.09843062 239.50860786 206.10573006 C235.90618737 206.11255466 232.30379468 206.11460394 228.70136833 206.11310768 C226.76005574 206.11351078 224.81874612 206.11887225 222.87744141 206.12442017 C216.49742841 206.11694664 210.32418543 205.85534675 204 205 C204 200.71 204 196.42 204 192 C202.35 192 200.7 192 199 192 C197.32900023 191.68911632 195.66128463 191.35919668 194 191 C193.34 191 192.68 191 192 191 C192 193.31 192 195.62 192 198 C189.69 198 187.38 198 185 198 C185 200.31 185 202.62 185 205 C182.03 205 179.06 205 176 205 C176 205.66 176 206.32 176 207 C157.85 207 139.7 207 121 207 C121 204.03 121 201.06 121 198 C118.69 198 116.38 198 114 198 C114 179.19 114 160.38 114 141 C101.46 141 88.92 141 76 141 C76 157.83 76 174.66 76 192 C74.02 192 72.04 192 70 192 C70 194.31 70 196.62 70 199 C68.02 199 66.04 199 64 199 C64 200.98 64 202.96 64 205 C61.69 205 59.38 205 57 205 C57 205.99 57 206.98 57 208 C40.5 208 24 208 7 208 C7 207.01 7 206.02 7 205 C4.69 205 2.38 205 0 205 C0 202.69 0 200.38 0 198 C-2.31 198 -4.62 198 -7 198 C-7 134.64 -7 71.28 -7 6 C-4.69 6 -2.38 6 0 6 C0 4.02 0 2.04 0 0 Z M5 9 C5 69.39 5 129.78 5 192 C24.47 192 43.94 192 64 192 C64 170.88 64 149.76 64 128 C80.83 128 97.66 128 115 128 C115 129.98 115 131.96 115 134 C116.98 134 118.96 134 121 134 C121 152.81 121 171.62 121 191 C142.12 191 163.24 191 185 191 C185 165.92 185 140.84 185 115 C183.02 115 181.04 115 179 115 C179 113.02 179 111.04 179 109 C174.71 109 170.42 109 166 109 C166 106.69 166 104.38 166 102 C167.98 102 169.96 102 172 102 C172 98.04 172 94.08 172 90 C176.29 90 180.58 90 185 90 C185 75.15 185 60.3 185 45 C183.02 45 181.04 45 179 45 C179.020625 44.030625 179.04125 43.06125 179.0625 42.0625 C179.35618499 39.12534105 179.35618499 39.12534105 178 38 C176.00041636 37.95919217 173.99954746 37.95745644 172 38 C172.01740234 36.95199219 172.01740234 36.95199219 172.03515625 35.8828125 C172.04417969 34.97273438 172.05320312 34.06265625 172.0625 33.125 C172.07990234 31.76761719 172.07990234 31.76761719 172.09765625 30.3828125 C172.16249257 27.9831415 172.16249257 27.9831415 171 26 C167.7 26 164.4 26 161 26 C160.67 24.35 160.34 22.7 160 21 C158.02 20.34 156.04 19.68 154 19 C153.67 17.02 153.34 15.04 153 13 C151.02 12.67 149.04 12.34 147 12 C146.67 11.01 146.34 10.02 146 9 C99.47 9 52.94 9 5 9 Z M210 9 C210 69.06 210 129.12 210 191 C256.53 191 303.06 191 351 191 C351.33 189.35 351.66 187.7 352 186 C353.98 185.67 355.96 185.34 358 185 C358 183.02 358 181.04 358 179 C359.98 179 361.96 179 364 179 C364.33 177.02 364.66 175.04 365 173 C366.65 172.67 368.3 172.34 370 172 C370.33 170.35 370.66 168.7 371 167 C372.98 166.34 374.96 165.68 377 165 C377 163.35 377 161.7 377 160 C378.65 160 380.3 160 382 160 C382 119.74 382 79.48 382 38 C380.35 38 378.7 38 377 38 C377 36.02 377 34.04 377 32 C374.69 32 372.38 32 370 32 C370 29.69 370 27.38 370 25 C366.04 25 362.08 25 358 25 C358 23.02 358 21.04 358 19 C355.69 19 353.38 19 351 19 C351 15.7 351 12.4 351 9 C304.47 9 257.94 9 210 9 Z " fill="#071E3B" transform="translate(519,397)"/>
<path d="M0 0 C96.36 0 192.72 0 292 0 C292 2.64 292 5.28 292 8 C293.98 8 295.96 8 298 8 C298 11.63 298 15.26 298 19 C300.31 19 302.62 19 305 19 C305.33 21.31 305.66 23.62 306 26 C307.98 26.33 309.96 26.66 312 27 C312 33.6 312 40.2 312 47 C201.78 47 91.56 47 -22 47 C-22 42.05 -22 37.1 -22 32 C-20.02 32 -18.04 32 -16 32 C-16 29.36 -16 26.72 -16 24 C-12.7 23.67 -9.4 23.34 -6 23 C-6.33 22.67 -6.66 22.34 -7 22 C-7.07179964 20.48071962 -7.08392007 18.95832518 -7.0625 17.4375 C-7.05347656 16.61121094 -7.04445312 15.78492188 -7.03515625 14.93359375 C-7.02355469 14.29550781 -7.01195312 13.65742187 -7 13 C-4.69 13 -2.38 13 0 13 C0 8.71 0 4.42 0 0 Z " fill="#F8F2E3" transform="translate(144,556)"/>
<path d="M0 0 C46.53 0 93.06 0 141 0 C141.33 0.99 141.66 1.98 142 3 C143.98 3.33 145.96 3.66 148 4 C148.33 5.98 148.66 7.96 149 10 C150.98 10.66 152.96 11.32 155 12 C155.33 13.65 155.66 15.3 156 17 C159.3 17 162.6 17 166 17 C167.26237731 19.52475462 167.09856404 21.31200466 167.0625 24.125 C167.05347656 25.03507812 167.04445313 25.94515625 167.03515625 26.8828125 C167.01775391 27.93082031 167.01775391 27.93082031 167 29 C168.4540625 28.9690625 168.4540625 28.9690625 169.9375 28.9375 C173 29 173 29 174 30 C174.04080783 31.99958364 174.04254356 34.00045254 174 36 C175.98 36 177.96 36 180 36 C180 50.85 180 65.7 180 81 C175.71 81 171.42 81 167 81 C167 84.96 167 88.92 167 93 C165.02 93 163.04 93 161 93 C161 95.31 161 97.62 161 100 C165.29 100 169.58 100 174 100 C174 101.98 174 103.96 174 106 C175.98 106 177.96 106 180 106 C180 131.08 180 156.16 180 182 C158.88 182 137.76 182 116 182 C116 163.19 116 144.38 116 125 C114.02 125 112.04 125 110 125 C110 123.02 110 121.04 110 119 C93.17 119 76.34 119 59 119 C59 140.12 59 161.24 59 183 C39.53 183 20.06 183 0 183 C0 122.61 0 62.22 0 0 Z M13 11 C13 63.47 13 115.94 13 170 C23.89 170 34.78 170 46 170 C46 148.88 46 127.76 46 106 C69.1 106 92.2 106 116 106 C116 110.29 116 114.58 116 119 C120.29 119 124.58 119 129 119 C129 135.5 129 152 129 169 C141.54 169 154.08 169 167 169 C167 150.19 167 131.38 167 112 C162.71 112 158.42 112 154 112 C154 110.02 154 108.04 154 106 C152.02 106 150.04 106 148 106 C148 103.69 148 101.38 148 99 C144.535 99.495 144.535 99.495 141 100 C141 97.69 141 95.38 141 93 C143.31 93 145.62 93 148 93 C148 91.02 148 89.04 148 87 C149.98 87 151.96 87 154 87 C154 84.69 154 82.38 154 80 C156.31 80 158.62 80 161 80 C161 78.02 161 76.04 161 74 C162.98 74 164.96 74 167 74 C167 63.44 167 52.88 167 42 C165.02 42 163.04 42 161 42 C161 40.02 161 38.04 161 36 C158.69 36 156.38 36 154 36 C154 33.69 154 31.38 154 29 C152.02 29 150.04 29 148 29 C148 27.02 148 25.04 148 23 C146.02 23 144.04 23 142 23 C142 20.69 142 18.38 142 16 C139.69 16 137.38 16 135 16 C135 14.35 135 12.7 135 11 C94.74 11 54.48 11 13 11 Z " fill="#D65051" transform="translate(524,406)"/>
<path d="M0 0 C33 0 66 0 100 0 C100 28.05 100 56.1 100 85 C67 85 34 85 0 85 C0 56.95 0 28.9 0 0 Z " fill="#5DB097" transform="translate(204,419)"/>
<path d="M0 0 C86.46 0 172.92 0 262 0 C262 2.64 262 5.28 262 8 C263.98 8 265.96 8 268 8 C268 10.31 268 12.62 268 15 C270.31 15 272.62 15 275 15 C275 71.43 275 127.86 275 186 C276.98 186 278.96 186 281 186 C281 190.29 281 194.58 281 199 C284.96 199 288.92 199 293 199 C292.38679245 207.46226415 292.38679245 207.46226415 290.71875 209.78125 C287.66584539 211.9460369 284.63746508 211.17889173 281 211 C281 207.37 281 203.74 281 200 C279.02 200 277.04 200 275 200 C275 197.36 275 194.72 275 192 C177.65 192 80.3 192 -20 192 C-20 189.03 -20 186.06 -20 183 C-17.36 183 -14.72 183 -12 183 C-12 127.56 -12 72.12 -12 15 C-10.02 15 -8.04 15 -6 15 C-6 12.69 -6 10.38 -6 8 C-4.02 8 -2.04 8 0 8 C0 5.36 0 2.72 0 0 Z M5 10 C5 12.31 5 14.62 5 17 C2.69 17 0.38 17 -2 17 C-2 72.11 -2 127.22 -2 184 C86.44 184 174.88 184 266 184 C266.83084118 173.74619142 266.83084118 173.74619142 267.12025452 163.55229187 C267.12110894 162.90823373 267.12196337 162.26417559 267.12284368 161.60060054 C267.12445632 159.49892101 267.11904829 157.39732613 267.11352539 155.2956543 C267.11324258 153.76666262 267.11340309 152.2376708 267.1139679 150.7086792 C267.11425219 146.60006373 267.10841542 142.49147808 267.10139394 138.38286948 C267.09509869 134.07342926 267.09455175 129.76398818 267.09336853 125.45454407 C267.09027328 117.31283961 267.08208448 109.17114874 267.07201904 101.02945024 C267.06080151 91.75242267 267.0553333 82.47539442 267.05032361 73.19836175 C267.03990016 54.13223349 267.02233605 35.06611784 267 16 C265.02 16 263.04 16 261 16 C261 14.02 261 12.04 261 10 C176.52 10 92.04 10 5 10 Z " fill="#0A1E3A" transform="translate(161,364)"/>
<path d="M0 0 C46.53 0 93.06 0 141 0 C141 3.3 141 6.6 141 10 C143.31 10 145.62 10 148 10 C148 11.98 148 13.96 148 16 C151.96 16 155.92 16 160 16 C160 18.31 160 20.62 160 23 C162.31 23 164.62 23 167 23 C167 24.98 167 26.96 167 29 C168.65 29 170.3 29 172 29 C172 69.26 172 109.52 172 151 C170.35 151 168.7 151 167 151 C167 152.65 167 154.3 167 156 C164.03 156.99 164.03 156.99 161 158 C160.67 159.65 160.34 161.3 160 163 C158.35 163.33 156.7 163.66 155 164 C154.67 165.98 154.34 167.96 154 170 C152.02 170 150.04 170 148 170 C148 171.98 148 173.96 148 176 C146.02 176.33 144.04 176.66 142 177 C141.67 178.65 141.34 180.3 141 182 C94.47 182 47.94 182 0 182 C0 121.94 0 61.88 0 0 Z M13 11 C13 63.14 13 115.28 13 169 C53.26 169 93.52 169 135 169 C135 167.02 135 165.04 135 163 C136.98 163 138.96 163 141 163 C141 161.02 141 159.04 141 157 C143.31 157 145.62 157 148 157 C148 154.69 148 152.38 148 150 C149.98 150 151.96 150 154 150 C154 148.02 154 146.04 154 144 C155.65 144 157.3 144 159 144 C159 108.03 159 72.06 159 35 C156.69 35 154.38 35 152 35 C152 33.02 152 31.04 152 29 C148.7 29 145.4 29 142 29 C142 25.04 142 21.08 142 17 C139.69 17 137.38 17 135 17 C135 15.02 135 13.04 135 11 C94.74 11 54.48 11 13 11 Z " fill="#D54F51" transform="translate(729,406)"/>
<path d="M0 0 C106.59 0 213.18 0 323 0 C323 7.59 323 15.18 323 23 C216.41 23 109.82 23 0 23 C0 15.41 0 7.82 0 0 Z " fill="#A38576" transform="translate(128,613)"/>
<path d="M0 0 C1.98 0 3.96 0 6 0 C6 6.27 6 12.54 6 19 C3.69 19 1.38 19 -1 19 C-1 21.31 -1 23.62 -1 26 C-2.65 26 -4.3 26 -6 26 C-5.9690625 27.4540625 -5.9690625 27.4540625 -5.9375 28.9375 C-6 32 -6 32 -7 33 C-8.98 33 -10.96 33 -13 33 C-13 36.96 -13 40.92 -13 45 C-15.31 45 -17.62 45 -20 45 C-20 46.98 -20 48.96 -20 51 C-21.98 51 -23.96 51 -26 51 C-25.9690625 52.4540625 -25.9690625 52.4540625 -25.9375 53.9375 C-26 57 -26 57 -27 58 C-28.99958364 58.04080783 -31.00045254 58.04254356 -33 58 C-33 59.65 -33 61.3 -33 63 C-79.2 63 -125.4 63 -173 63 C-173 59.04 -173 55.08 -173 51 C-174.98 51 -176.96 51 -179 51 C-179 49.02 -179 47.04 -179 45 C-183.62 45 -188.24 45 -193 45 C-193 46.98 -193 48.96 -193 51 C-194.98 51 -196.96 51 -199 51 C-199 53.31 -199 55.62 -199 58 C-202.465 58.495 -202.465 58.495 -206 59 C-206.33 60.32 -206.66 61.64 -207 63 C-225.48 63 -243.96 63 -263 63 C-263 59.37 -263 55.74 -263 52 C-265.31 52 -267.62 52 -270 52 C-270 45.4 -270 38.8 -270 32 C-267.69 32 -265.38 32 -263 32 C-263 34.97 -263 37.94 -263 41 C-244.85 41 -226.7 41 -208 41 C-208 40.34 -208 39.68 -208 39 C-205.03 39 -202.06 39 -199 39 C-199 36.69 -199 34.38 -199 32 C-196.69 32 -194.38 32 -192 32 C-192 29.69 -192 27.38 -192 25 C-186.82442163 23.76771944 -185.47871603 24.17376132 -180 26 C-180 30.29 -180 34.58 -180 39 C-131.49 39.33 -82.98 39.66 -33 40 C-33 37.36 -33 34.72 -33 32 C-28.71 32 -24.42 32 -20 32 C-20 30.02 -20 28.04 -20 26 C-17.69 26 -15.38 26 -13 26 C-13 21.71 -13 17.42 -13 13 C-11.02 13 -9.04 13 -7 13 C-7 11.02 -7 9.04 -7 7 C-4.69 7 -2.38 7 0 7 C0 4.69 0 2.38 0 0 Z " fill="#284956" transform="translate(903,563)"/>
<path d="M0 0 C1.65 0 3.3 0 5 0 C5.33 1.65 5.66 3.3 6 5 C113.91 5.33 221.82 5.66 333 6 C333 10.29 333 14.58 333 19 C331.02 19.33 329.04 19.66 327 20 C326.67 21.32 326.34 22.64 326 24 C220.4 24 114.8 24 6 24 C6 22.02 6 20.04 6 18 C4.02 18 2.04 18 0 18 C0 12.06 0 6.12 0 0 Z " fill="#254452" transform="translate(122,640)"/>
<path d="M0 0 C49.83 0 99.66 0 151 0 C151 3.3 151 6.6 151 10 C153.64 10 156.28 10 159 10 C159 51.91 159 93.82 159 137 C156.36 137 153.72 137 151 137 C151 140.63 151 144.26 151 148 C101.5 148 52 148 1 148 C1 145.03 1 142.06 1 139 C-1.64 139 -4.28 139 -7 139 C-7 96.1 -7 53.2 -7 9 C-4.69 9 -2.38 9 0 9 C0 6.03 0 3.06 0 0 Z M2 11 C2 52.58 2 94.16 2 137 C48.2 137 94.4 137 142 137 C142 134.03 142 131.06 142 128 C144.31 128 146.62 128 149 128 C149 89.39 149 50.78 149 11 C100.49 11 51.98 11 2 11 Z " fill="#5B3342" transform="translate(178,387)"/>
<path d="M0 0 C17.82 0 35.64 0 54 0 C54 23.43 54 46.86 54 71 C51.03 71 48.06 71 45 71 C45 73.31 45 75.62 45 78 C30.15 78 15.3 78 0 78 C0 52.26 0 26.52 0 0 Z " fill="#04203B" transform="translate(787,460)"/>
<path d="M0 0 C26.4 0 52.8 0 80 0 C80 32.01 80 64.02 80 97 C77.03 97 74.06 97 71 97 C71 98.98 71 100.96 71 103 C47.57 103 24.14 103 0 103 C0 69.01 0 35.02 0 0 Z M13 13 C13 38.74 13 64.48 13 91 C27.85 91 42.7 91 58 91 C58 88.69 58 86.38 58 84 C60.97 84 63.94 84 67 84 C67 60.57 67 37.14 67 13 C49.18 13 31.36 13 13 13 Z " fill="#D65054" transform="translate(774,447)"/>
<path d="M0 0 C33.99 0 67.98 0 103 0 C103 2.97 103 5.94 103 9 C105.31 9 107.62 9 110 9 C110 38.37 110 67.74 110 98 C108.02 98 106.04 98 104 98 C104 100.31 104 102.62 104 105 C70.01 105 36.02 105 1 105 C1 102.03 1 99.06 1 96 C-1.97 96 -4.94 96 -8 96 C-8 66.96 -8 37.92 -8 8 C-5.36 8 -2.72 8 0 8 C0 5.36 0 2.72 0 0 Z M1 10 C1 38.05 1 66.1 1 95 C34 95 67 95 101 95 C101 66.95 101 38.9 101 10 C68 10 35 10 1 10 Z " fill="#191D35" transform="translate(203,409)"/>
<path d="M0 0 C11.55 0 23.1 0 35 0 C35 5.94 35 11.88 35 18 C39.95 18 44.9 18 50 18 C50 28.23 50 38.46 50 49 C45.05 49 40.1 49 35 49 C35 54.94 35 60.88 35 67 C23.78 67 12.56 67 1 67 C1 61.06 1 55.12 1 49 C-4.28 49 -9.56 49 -15 49 C-15 38.77 -15 28.54 -15 18 C-10.05 18 -5.1 18 0 18 C0 12.06 0 6.12 0 0 Z " fill="#0F1F37" transform="translate(366,454)"/>
<path d="M0 0 C27.72 0 55.44 0 84 0 C84 12.87 84 25.74 84 39 C58.59 39 33.18 39 7 39 C7 37.02 7 35.04 7 33 C4.69 33 2.38 33 0 33 C0 22.11 0 11.22 0 0 Z " fill="#D74D50" transform="translate(569,447)"/>
<path d="M0 0 C32.34 0 64.68 0 98 0 C98 4.29 98 8.58 98 13 C9.56 13 -78.88 13 -170 13 C-170 10.03 -170 7.06 -170 4 C-113.9 4 -57.8 4 0 4 C0 2.68 0 1.36 0 0 Z " fill="#A88E7C" transform="translate(329,535)"/>
<path d="M0 0 C106.59 0 213.18 0 323 0 C323 2.64 323 5.28 323 8 C216.41 8 109.82 8 0 8 C0 5.36 0 2.72 0 0 Z " fill="#F7F3DE" transform="translate(128,613)"/>
<path d="M0 0 C2.97 0 5.94 0 9 0 C9 41.91 9 83.82 9 127 C6.03 127 3.06 127 0 127 C0 130.3 0 133.6 0 137 C-48.84 137 -97.68 137 -148 137 C-148 134.03 -148 131.06 -148 128 C-101.8 128 -55.6 128 -8 128 C-8 125.03 -8 122.06 -8 119 C-5.36 119 -2.72 119 0 119 C0 79.73 0 40.46 0 0 Z " fill="#111E39" transform="translate(328,397)"/>
<path d="M0 0 C20.79 0 41.58 0 63 0 C63 11.22 63 22.44 63 34 C42.21 34 21.42 34 0 34 C0 22.78 0 11.56 0 0 Z " fill="#0C1F36" transform="translate(353,399)"/>
<path d="M0 0 C23.76 0 47.52 0 72 0 C72 8.91 72 17.82 72 27 C48.24 27 24.48 27 0 27 C0 18.09 0 9.18 0 0 Z " fill="#0D2342" transform="translate(363,566)"/>
<path d="M0 0 C10.89 0 21.78 0 33 0 C33 16.83 33 33.66 33 51 C22.11 51 11.22 51 0 51 C0 34.17 0 17.34 0 0 Z " fill="#4B6A78" transform="translate(799,474)"/>
<path d="M0 0 C1.98 0 3.96 0 6 0 C6 5.94 6 11.88 6 18 C3.69 18 1.38 18 -1 18 C-1 21.96 -1 25.92 -1 30 C-19.48 30.33 -37.96 30.66 -57 31 C-57 29.02 -57 27.04 -57 25 C-57.969375 25.020625 -58.93875 25.04125 -59.9375 25.0625 C-63 25 -63 25 -64 24 C-64.08631874 22.65732587 -64.10706473 21.31025678 -64.09765625 19.96484375 C-64.09443359 19.15595703 -64.09121094 18.34707031 -64.08789062 17.51367188 C-64.07951172 16.66353516 -64.07113281 15.81339844 -64.0625 14.9375 C-64.05798828 14.08349609 -64.05347656 13.22949219 -64.04882812 12.34960938 C-64.03700373 10.23304337 -64.01906769 8.11651315 -64 6 C-61.69 6 -59.38 6 -57 6 C-57 6.99 -57 7.98 -57 9 C-40.5 9 -24 9 -7 9 C-7 8.01 -7 7.02 -7 6 C-4.69 6 -2.38 6 0 6 C0 4.02 0 2.04 0 0 Z " fill="#264855" transform="translate(583,596)"/>
<path d="M0 0 C0 1.98 0 3.96 0 6 C1.98 6 3.96 6 6 6 C6 8.31 6 10.62 6 13 C9.96 13 13.92 13 18 13 C18 15.31 18 17.62 18 20 C19.98 20 21.96 20 24 20 C24 23.63 24 27.26 24 31 C26.31 30.34 28.62 29.68 31 29 C31 31.97 31 34.94 31 38 C33.31 38 35.62 38 38 38 C38 57.14 38 76.28 38 96 C36.02 96 34.04 96 32 96 C32 125.37 32 154.74 32 185 C31.67 185 31.34 185 31 185 C31 159.92 31 134.84 31 109 C29.02 109 27.04 109 25 109 C25 107.02 25 105.04 25 103 C20.71 103 16.42 103 12 103 C12 100.69 12 98.38 12 96 C13.98 96 15.96 96 18 96 C18 92.04 18 88.08 18 84 C22.29 84 26.58 84 31 84 C31 69.15 31 54.3 31 39 C29.02 39 27.04 39 25 39 C24.67 37.02 24.34 35.04 24 33 C21.03 32.505 21.03 32.505 18 32 C17.67 28.04 17.34 24.08 17 20 C13.7 20 10.4 20 7 20 C6.79375 19.21625 6.5875 18.4325 6.375 17.625 C5.19323388 14.69083714 5.19323388 14.69083714 1.875 13.6875 C0.92625 13.460625 -0.0225 13.23375 -1 13 C-1 11.02 -1 9.04 -1 7 C-2.98 7 -4.96 7 -7 7 C-7.33 5.68 -7.66 4.36 -8 3 C-54.53 3 -101.06 3 -149 3 C-148.67 2.34 -148.34 1.68 -148 1 C-130.03208987 0.86921992 -112.06417707 0.73881359 -94.09626102 0.60884857 C-85.75289343 0.54849091 -77.40952674 0.48801232 -69.06616211 0.42724609 C-61.7915689 0.37426423 -54.51697407 0.32151228 -47.24237722 0.26903296 C-43.39285151 0.24125434 -39.54332668 0.21336293 -35.69380379 0.18519592 C-32.06512779 0.1586485 -28.43644968 0.13241017 -24.80776978 0.10640144 C-22.85214584 0.0923061 -20.89652422 0.07788972 -18.94090271 0.0634613 C-12.62706314 0.01851347 -6.31399905 -0.00995569 0 0 Z " fill="#0F1C35" transform="translate(673,403)"/>
<path d="M0 0 C49.17 0 98.34 0 149 0 C149 2.64 149 5.28 149 8 C99.83 8 50.66 8 0 8 C0 5.36 0 2.72 0 0 Z " fill="#051B3E" transform="translate(179,388)"/>
<path d="M0 0 C4.95 0 9.9 0 15 0 C15 5.94 15 11.88 15 18 C19.95 18 24.9 18 30 18 C30 22.95 30 27.9 30 33 C24.72 33 19.44 33 14 33 C14 38.61 14 44.22 14 50 C9.71 50 5.42 50 1 50 C1 44.39 1 38.78 1 33 C-4.61 33 -10.22 33 -16 33 C-16 28.05 -16 23.1 -16 18 C-10.72 18 -5.44 18 0 18 C0 12.06 0 6.12 0 0 Z " fill="#BB323C" transform="translate(376,462)"/>
<path d="M0 0 C12.54 0 25.08 0 38 0 C38 18.81 38 37.62 38 57 C35.69 57 33.38 57 31 57 C31 46.44 31 35.88 31 25 C29.68 25 28.36 25 27 25 C27 22.69 27 20.38 27 18 C18.42 18 9.84 18 1 18 C1 30.87 1 43.74 1 57 C-1.31 57 -3.62 57 -6 57 C-6 55.02 -6 53.04 -6 51 C-4.02 51 -2.04 51 0 51 C0 34.17 0 17.34 0 0 Z " fill="#2A4855" transform="translate(595,538)"/>
<path d="M0 0 C2.64 0 5.28 0 8 0 C8 42.57 8 85.14 8 129 C5.36 129 2.72 129 0 129 C0 86.43 0 43.86 0 0 Z " fill="#181530" transform="translate(171,397)"/>
<path d="M0 0 C46.86 0 93.72 0 142 0 C142 2.31 142 4.62 142 7 C95.14 7 48.28 7 0 7 C0 4.69 0 2.38 0 0 Z " fill="#012341" transform="translate(729,397)"/>
<path d="M0 0 C50.16 0 100.32 0 152 0 C152 2.31 152 4.62 152 7 C155.63 7 159.26 7 163 7 C163 10.3 163 13.6 163 17 C164.98 17 166.96 17 169 17 C169 19.64 169 22.28 169 25 C166.69 25 164.38 25 162 25 C162 22.69 162 20.38 162 18 C158.04 18 154.08 18 150 18 C150 16.02 150 14.04 150 12 C147.69 12 145.38 12 143 12 C143 8.7 143 5.4 143 2 C96.47 2 49.94 2 2 2 C2 62.06 2 122.12 2 184 C1.34 184 0.68 184 0 184 C0 123.28 0 62.56 0 0 Z " fill="#291B35" transform="translate(727,404)"/>
<path d="M0 0 C19.14 0 38.28 0 58 0 C58 4.95 58 9.9 58 15 C38.86 15 19.72 15 0 15 C0 10.05 0 5.1 0 0 Z " fill="#022042" transform="translate(583,459)"/>
<path d="M0 0 C0.76166977 0.00222061 1.52333954 0.00444122 2.30809021 0.00672913 C3.16890701 0.00680466 4.02972382 0.00688019 4.91662598 0.00695801 C5.8520372 0.01211929 6.78744843 0.01728058 7.75120544 0.02259827 C8.70422043 0.02401321 9.65723541 0.02542816 10.63912964 0.02688599 C13.69605085 0.032503 16.75289996 0.04505836 19.80979919 0.05775452 C21.87685543 0.06276733 23.94391281 0.06733061 26.01097107 0.07142639 C31.08977507 0.08247795 36.16852489 0.09975397 41.24729919 0.12025452 C41.24729919 5.40025452 41.24729919 10.68025452 41.24729919 16.12025452 C26.72729919 16.12025452 12.20729919 16.12025452 -2.75270081 16.12025452 C-2.75270081 0.18886549 -2.75270081 0.18886549 0 0 Z " fill="#5AAD9A" transform="translate(364.75270080566406,407.87974548339844)"/>
<path d="M0 0 C33 0 66 0 100 0 C100 2.31 100 4.62 100 7 C98.06775535 8.93224465 95.16389611 8.12018438 92.59291077 8.12442017 C91.67078293 8.12082489 90.74865509 8.11722961 89.79858398 8.11352539 C88.34995972 8.11374443 88.34995972 8.11374443 86.87207031 8.1139679 C83.66338901 8.11326834 80.45476497 8.10547397 77.24609375 8.09765625 C75.02791882 8.09579222 72.80974348 8.09436825 70.59156799 8.09336853 C64.74059929 8.08954216 58.88965523 8.07971086 53.03869629 8.06866455 C47.07332696 8.05845299 41.10795367 8.05387146 35.14257812 8.04882812 C23.42837456 8.03808869 11.71418933 8.02101085 0 8 C0.33 7.34 0.66 6.68 1 6 C0.67 6 0.34 6 0 6 C0 4.02 0 2.04 0 0 Z " fill="#0C1F3C" transform="translate(205,411)"/>
<path d="M0 0 C46.53 0 93.06 0 141 0 C140.67 0.66 140.34 1.32 140 2 C71.69 1.505 71.69 1.505 2 1 C2 60.4 2 119.8 2 181 C20.15 181 38.3 181 57 181 C57.33 160.87 57.66 140.74 58 120 C58.33 120 58.66 120 59 120 C59 140.79 59 161.58 59 183 C39.53 183 20.06 183 0 183 C0 122.61 0 62.22 0 0 Z " fill="#9E3D4D" transform="translate(524,406)"/>
<path d="M0 0 C0 1.98 0 3.96 0 6 C1.98 6 3.96 6 6 6 C6 8.31 6 10.62 6 13 C9.96 13 13.92 13 18 13 C18 15.31 18 17.62 18 20 C19.98 20 21.96 20 24 20 C24 23.63 24 27.26 24 31 C26.31 30.34 28.62 29.68 31 29 C31 31.97 31 34.94 31 38 C28.03 37.505 28.03 37.505 25 37 C24.67 35.68 24.34 34.36 24 33 C21.03 32.505 21.03 32.505 18 32 C17.67 28.04 17.34 24.08 17 20 C13.7 20 10.4 20 7 20 C6.79375 19.21625 6.5875 18.4325 6.375 17.625 C5.19323388 14.69083714 5.19323388 14.69083714 1.875 13.6875 C0.92625 13.460625 -0.0225 13.23375 -1 13 C-1 11.02 -1 9.04 -1 7 C-2.98 7 -4.96 7 -7 7 C-7.33 5.68 -7.66 4.36 -8 3 C-54.53 3 -101.06 3 -149 3 C-148.67 2.34 -148.34 1.68 -148 1 C-130.03208987 0.86921992 -112.06417707 0.73881359 -94.09626102 0.60884857 C-85.75289343 0.54849091 -77.40952674 0.48801232 -69.06616211 0.42724609 C-61.7915689 0.37426423 -54.51697407 0.32151228 -47.24237722 0.26903296 C-43.39285151 0.24125434 -39.54332668 0.21336293 -35.69380379 0.18519592 C-32.06512779 0.1586485 -28.43644968 0.13241017 -24.80776978 0.10640144 C-22.85214584 0.0923061 -20.89652422 0.07788972 -18.94090271 0.0634613 C-12.62706314 0.01851347 -6.31399905 -0.00995569 0 0 Z " fill="#241C37" transform="translate(673,403)"/>
<path d="M0 0 C1.32 0 2.64 0 4 0 C4 0.66 4 1.32 4 2 C4.66 2 5.32 2 6 2 C6.9203713 20.18394489 7.13003903 38.32533735 7.06866455 56.53033447 C7.05818666 59.98440912 7.0538162 63.43849196 7.04882812 66.89257812 C7.03830081 73.59507097 7.02137925 80.29753316 7 87 C5.00045254 87.04254356 2.99958364 87.04080783 1 87 C-0.78857062 85.21142938 -0.11990579 82.79876866 -0.12442017 80.41790771 C-0.12082489 79.61733948 -0.11722961 78.81677124 -0.11352539 77.99194336 C-0.11367142 77.15299026 -0.11381744 76.31403717 -0.1139679 75.44966125 C-0.1132685 72.66302956 -0.10547485 69.87646384 -0.09765625 67.08984375 C-0.09579217 65.16313209 -0.09436822 63.23641995 -0.09336853 61.30970764 C-0.08954259 56.22812603 -0.07971166 51.1465728 -0.06866455 46.06500244 C-0.05845206 40.88383366 -0.05387126 35.70266031 -0.04882812 30.52148438 C-0.03808946 20.34764375 -0.02101213 10.17382423 0 0 Z " fill="#0B1E3C" transform="translate(196,417)"/>
<path d="M0 0 C33.99 0 67.98 0 103 0 C103 2.97 103 5.94 103 9 C102.67 9 102.34 9 102 9 C102 6.69 102 4.38 102 2 C69 2 36 2 2 2 C2.33 3.65 2.66 5.3 3 7 C50.025 7.495 50.025 7.495 98 8 C98 8.33 98 8.66 98 9 C66.32 9.33 34.64 9.66 2 10 C1.67 38.38 1.34 66.76 1 96 C-1.97 96 -4.94 96 -8 96 C-8 66.96 -8 37.92 -8 8 C-7.67 8 -7.34 8 -7 8 C-6.67 36.38 -6.34 64.76 -6 94 C-4.02 94.33 -2.04 94.66 0 95 C-0.01879211 93.95574608 -0.01879211 93.95574608 -0.03796387 92.89039612 C-0.15791678 86.20237508 -0.2756588 79.51431804 -0.39115143 72.82621861 C-0.45054309 69.3910416 -0.51067639 65.95588155 -0.57275391 62.52075195 C-0.88730315 45.01191388 -1.07744943 27.51176325 -1 10 C-1.66 10 -2.32 10 -3 10 C-3 9.34 -3 8.68 -3 8 C-2.01 8 -1.02 8 0 8 C0 5.36 0 2.72 0 0 Z " fill="#23162D" transform="translate(203,409)"/>
<path d="M0 0 C0.99 0.33 1.98 0.66 3 1 C3 42.91 3 84.82 3 128 C1.68 128 0.36 128 -1 128 C-1.02332889 111.45852931 -1.04097912 94.91706394 -1.05181217 78.37558079 C-1.05697515 70.69561273 -1.06401789 63.01565487 -1.07543945 55.33569336 C-1.08538623 48.64422011 -1.09185341 41.95275424 -1.09408849 35.2612738 C-1.09539561 31.71604399 -1.09848153 28.17083532 -1.10573006 24.62561226 C-1.1137438 20.67431355 -1.11399114 16.7230358 -1.11352539 12.77172852 C-1.11712067 11.58778 -1.12071594 10.40383148 -1.12442017 9.18400574 C-1.1230455 8.11403351 -1.12167084 7.04406128 -1.12025452 5.94166565 C-1.12117631 5.00604577 -1.1220981 4.07042589 -1.12304783 3.1064539 C-1 1 -1 1 0 0 Z " fill="#051940" transform="translate(174,397)"/>
<path d="M0 0 C24.75 0 49.5 0 75 0 C75 1.98 75 3.96 75 6 C71.62021442 7.12659519 69.07183864 7.12020983 65.5090332 7.11352539 C64.52814224 7.11374443 64.52814224 7.11374443 63.5274353 7.1139679 C61.36851674 7.11327188 59.20968472 7.10549408 57.05078125 7.09765625 C55.55291287 7.09579096 54.05504389 7.09436758 52.55717468 7.09336853 C48.61654981 7.08955207 44.67596186 7.0797292 40.73535156 7.06866455 C36.71354675 7.05843172 32.69173596 7.0538669 28.66992188 7.04882812 C20.77993099 7.03810616 12.88997009 7.02104017 5 7 C5.33 5.35 5.66 3.7 6 2 C3.03 1.505 3.03 1.505 0 1 C0 0.67 0 0.34 0 0 Z " fill="#FEFADC" transform="translate(360,557)"/>
<path d="M0 0 C0.33 0 0.66 0 1 0 C1 2.31 1 4.62 1 7 C50.17 7 99.34 7 150 7 C150 7.99 150 8.98 150 10 C98.52 10 47.04 10 -6 10 C-6 9.67 -6 9.34 -6 9 C-4.35 9 -2.7 9 -1 9 C-0.67 6.03 -0.34 3.06 0 0 Z " fill="#FEFCE7" transform="translate(178,528)"/>
<path d="M0 0 C17.82 0 35.64 0 54 0 C54 2.64 54 5.28 54 8 C36.18 8 18.36 8 0 8 C0 5.36 0 2.72 0 0 Z " fill="#C0303C" transform="translate(372,575)"/>
<path d="M0 0 C10.89 0 21.78 0 33 0 C33 4.29 33 8.58 33 13 C22.11 13 11.22 13 0 13 C0 8.71 0 4.42 0 0 Z " fill="#2D4D52" transform="translate(799,474)"/>
<path d="M0 0 C26.4 0 52.8 0 80 0 C80 32.01 80 64.02 80 97 C77.03 96.67 74.06 96.34 71 96 C71 95.67 71 95.34 71 95 C73.64 95 76.28 95 79 95 C79 63.98 79 32.96 79 1 C53.26 1 27.52 1 1 1 C1.14948421 15.53910692 1.14948421 15.53910692 1.30664062 30.078125 C1.37256631 36.02016016 1.43765183 41.9621951 1.49731445 47.90429688 C1.54554867 52.70246757 1.59790046 57.50057826 1.65294075 62.29867554 C1.67310063 64.11638872 1.69185187 65.93411818 1.70907402 67.75186157 C1.73371484 70.32551872 1.76366952 72.89906889 1.79467773 75.47265625 C1.8004332 76.20059387 1.80618866 76.92853149 1.81211853 77.67852783 C1.91704785 85.49058072 2.510465 93.16744007 3 101 C36.165 101.495 36.165 101.495 70 102 C70 100.35 70 98.7 70 97 C70.33 97 70.66 97 71 97 C71 98.98 71 100.96 71 103 C47.57 103 24.14 103 0 103 C0 69.01 0 35.02 0 0 Z " fill="#CB5F3E" transform="translate(774,447)"/>
<path d="M0 0 C17.82 0 35.64 0 54 0 C54 23.43 54 46.86 54 71 C51.03 71 48.06 71 45 71 C45 73.31 45 75.62 45 78 C30.15 78 15.3 78 0 78 C0 52.26 0 26.52 0 0 Z M2 1 C2 25.75 2 50.5 2 76 C15.86 76 29.72 76 44 76 C44 74.02 44 72.04 44 70 C46.97 70 49.94 70 53 70 C53 47.23 53 24.46 53 1 C36.17 1 19.34 1 2 1 Z " fill="#2C152E" transform="translate(787,460)"/>
<path d="M0 0 C0.33 0 0.66 0 1 0 C1 59.4 1 118.8 1 180 C-1.31 180 -3.62 180 -6 180 C-6 182.31 -6 184.62 -6 187 C-6.33 187 -6.66 187 -7 187 C-7 159.94 -7 132.88 -7 105 C-8.65 105 -10.3 105 -12 105 C-12 104.67 -12 104.34 -12 104 C-10.02 104 -8.04 104 -6 104 C-6 125.45 -6 146.9 -6 169 C-4.02 169 -2.04 169 0 169 C0 113.23 0 57.46 0 0 Z " fill="#152D3D" transform="translate(717,408)"/>
<path d="M0 0 C0.79899719 0.00202423 1.59799438 0.00404846 2.42120361 0.00613403 C3.67722382 0.00350555 3.67722382 0.00350555 4.95861816 0.00082397 C7.74043825 -0.00359545 10.52219532 -0.00065624 13.30401611 0.00271606 C15.22833264 0.00204305 17.15264909 0.00107305 19.07696533 -0.00018311 C23.11554776 -0.0016602 27.15410812 0.00049485 31.19268799 0.00515747 C36.38170122 0.01085476 41.57066274 0.00757582 46.75967407 0.00158501 C50.73492831 -0.00202029 54.7101702 -0.00088216 58.6854248 0.0017128 C60.59928392 0.00238215 62.51314413 0.00155335 64.42700195 -0.00076675 C67.09697461 -0.00329277 69.76686232 0.00054658 72.43682861 0.00613403 C73.23582581 0.0041098 74.034823 0.00208557 74.85803223 0 C80.31475362 0.02126607 80.31475362 0.02126607 81.42901611 1.13552856 C81.5176991 4.09258177 81.54421907 7.02617913 81.52667236 9.98318481 C81.52525742 10.86961166 81.52384247 11.75603851 81.52238464 12.66932678 C81.51676827 15.51226111 81.50421303 18.35511788 81.49151611 21.19802856 C81.48650322 23.12055347 81.48193995 25.04307961 81.47784424 26.96560669 C81.46679352 31.68894406 81.44951794 36.41222314 81.42901611 41.13552856 C80.76901611 41.13552856 80.10901611 41.13552856 79.42901611 41.13552856 C79.42901611 28.26552856 79.42901611 15.39552856 79.42901611 2.13552856 C51.70901611 2.13552856 23.98901611 2.13552856 -4.57098389 2.13552856 C-4.57098389 13.02552856 -4.57098389 23.91552856 -4.57098389 35.13552856 C-5.23098389 34.80552856 -5.89098389 34.47552856 -6.57098389 34.13552856 C-6.59563677 29.45413603 -6.61382128 24.77278097 -6.62591553 20.09133911 C-6.63095546 18.49758242 -6.63778738 16.90383037 -6.64642334 15.31008911 C-6.65850387 13.02402604 -6.66421544 10.73802389 -6.66864014 8.45193481 C-6.67380142 7.73526138 -6.67896271 7.01858795 -6.6842804 6.28019714 C-6.68447652 4.56489184 -6.63290396 2.8497159 -6.57098389 1.13552856 C-4.78490332 -0.650552 -2.37834854 0.00926896 0 0 Z " fill="#F8B861" transform="translate(573.5709838867188,444.8644714355469)"/>
<path d="M0 0 C4.29 0 8.58 0 13 0 C13 2.31 13 4.62 13 7 C16.96 7 20.92 7 25 7 C25 9.31 25 11.62 25 14 C26.98 14 28.96 14 31 14 C31 17.63 31 21.26 31 25 C33.31 24.34 35.62 23.68 38 23 C38 25.97 38 28.94 38 32 C36.02 31.67 34.04 31.34 32 31 C31.67 29.68 31.34 28.36 31 27 C29.02 26.67 27.04 26.34 25 26 C24.67 22.04 24.34 18.08 24 14 C20.7 14 17.4 14 14 14 C13.79375 13.21625 13.5875 12.4325 13.375 11.625 C12.19323388 8.69083714 12.19323388 8.69083714 8.875 7.6875 C7.92625 7.460625 6.9775 7.23375 6 7 C6 5.02 6 3.04 6 1 C4.02 1 2.04 1 0 1 C0 0.67 0 0.34 0 0 Z " fill="#20203C" transform="translate(666,409)"/>
<path d="M0 0 C4.29 0 8.58 0 13 0 C13 18.81 13 37.62 13 57 C0.46 57 -12.08 57 -25 57 C-25 40.5 -25 24 -25 7 C-24.34 7 -23.68 7 -23 7 C-21.70333109 11.93990474 -21.87375951 16.82837129 -21.90234375 21.89453125 C-21.90446617 23.31556404 -21.90446617 23.31556404 -21.90663147 24.76530457 C-21.91221389 27.78106895 -21.92476318 30.79675818 -21.9375 33.8125 C-21.94251727 35.86132705 -21.94707978 37.91015527 -21.95117188 39.95898438 C-21.96217757 44.97268506 -21.97943012 49.9863298 -22 55 C-21.0713916 54.99476318 -20.1427832 54.98952637 -19.18603516 54.98413086 C-15.74576195 54.96710407 -12.30553341 54.95455727 -8.86523438 54.94506836 C-7.37531834 54.94003486 -5.88540726 54.93320758 -4.39550781 54.92456055 C-2.25584696 54.91245195 -0.11625132 54.90676193 2.0234375 54.90234375 C3.31169434 54.89710693 4.59995117 54.89187012 5.92724609 54.88647461 C9 55 9 55 11 56 C10.99476318 54.68918457 10.98952637 53.37836914 10.98413086 52.02783203 C10.96591814 47.12630913 10.95450894 42.22478918 10.94506836 37.32324219 C10.94006514 35.20897924 10.93326049 33.09471971 10.92456055 30.98046875 C10.91231817 27.92707472 10.90673142 24.87372675 10.90234375 21.8203125 C10.89718246 20.88760529 10.89202118 19.95489807 10.88670349 18.993927 C10.88619449 12.92770917 11.31142642 7.02799712 12 1 C8.04 1 4.08 1 0 1 C0 0.67 0 0.34 0 0 Z " fill="#F69E56" transform="translate(678,518)"/>
<path d="M0 0 C1.09783813 -0.00315216 2.19567627 -0.00630432 3.32678223 -0.009552 C5.11892151 -0.00651566 5.11892151 -0.00651566 6.94726562 -0.00341797 C8.16426147 -0.00437469 9.38125732 -0.00533142 10.63513184 -0.00631714 C13.21427461 -0.00699919 15.79341909 -0.00514319 18.37255859 -0.00097656 C22.33630198 0.00437131 26.29993204 -0.00092076 30.26367188 -0.00732422 C32.76237004 -0.00666344 35.26106814 -0.00538229 37.75976562 -0.00341797 C38.95452515 -0.0054422 40.14928467 -0.00746643 41.38024902 -0.009552 C42.47808716 -0.00639984 43.57592529 -0.00324768 44.70703125 0 C46.16477966 0.00119339 46.16477966 0.00119339 47.65197754 0.00241089 C49.85351562 0.12939453 49.85351562 0.12939453 50.85351562 1.12939453 C50.951755 2.79368505 50.98325193 4.46221384 50.97851562 6.12939453 C50.98238281 7.49064453 50.98238281 7.49064453 50.98632812 8.87939453 C50.85351562 11.12939453 50.85351562 11.12939453 49.85351562 12.12939453 C48.14032617 12.22821046 46.42306759 12.25738422 44.70703125 12.25878906 C43.60919312 12.26194122 42.51135498 12.26509338 41.38024902 12.26834106 C40.1854895 12.26631683 38.99072998 12.2642926 37.75976562 12.26220703 C36.54276978 12.26316376 35.32577393 12.26412048 34.07189941 12.2651062 C31.49275664 12.26578825 28.91361216 12.26393225 26.33447266 12.25976562 C22.37072927 12.25441776 18.40709921 12.25970982 14.44335938 12.26611328 C11.94466121 12.2654525 9.44596311 12.26417135 6.94726562 12.26220703 C5.15512634 12.26524338 5.15512634 12.26524338 3.32678223 12.26834106 C2.22894409 12.2651889 1.13110596 12.26203674 0 12.25878906 C-1.45774841 12.25759567 -1.45774841 12.25759567 -2.94494629 12.25637817 C-5.14648438 12.12939453 -5.14648438 12.12939453 -6.14648438 11.12939453 C-6.24472375 9.46510402 -6.27622068 7.79657522 -6.27148438 6.12939453 C-6.2740625 5.22189453 -6.27664063 4.31439453 -6.27929688 3.37939453 C-6.02821263 -0.87426793 -3.72069433 0.00304596 0 0 Z M-4.14648438 2.12939453 C-4.14648438 4.76939453 -4.14648438 7.40939453 -4.14648438 10.12939453 C13.67351562 10.12939453 31.49351562 10.12939453 49.85351562 10.12939453 C49.85351562 7.48939453 49.85351562 4.84939453 49.85351562 2.12939453 C32.03351563 2.12939453 14.21351563 2.12939453 -4.14648438 2.12939453 Z " fill="#301027" transform="translate(376.146484375,572.87060546875)"/>
<path d="M0 0 C2.64 0 5.28 0 8 0 C8 2.31 8 4.62 8 7 C11.63 7 15.26 7 19 7 C19 10.3 19 13.6 19 17 C20.98 17 22.96 17 25 17 C25 19.64 25 22.28 25 25 C22.69 25 20.38 25 18 25 C17.67 22.03 17.34 19.06 17 16 C14.03 16 11.06 16 8 16 C8 14.35 8 12.7 8 11 C5.36 11 2.72 11 0 11 C0 7.37 0 3.74 0 0 Z " fill="#032241" transform="translate(871,404)"/>
<path d="M0 0 C19.14 0 38.28 0 58 0 C58 4.95 58 9.9 58 15 C38.86 15 19.72 15 0 15 C0 10.05 0 5.1 0 0 Z M2 2 C2 5.96 2 9.92 2 14 C19.82 14 37.64 14 56 14 C56 10.04 56 6.08 56 2 C38.18 2 20.36 2 2 2 Z " fill="#3B1A34" transform="translate(583,459)"/>
<path d="M0 0 C1.98 0 3.96 0 6 0 C6 21.45 6 42.9 6 65 C7.98 65 9.96 65 12 65 C12 68.3 12 71.6 12 75 C9.03 75.495 9.03 75.495 6 76 C6 78.31 6 80.62 6 83 C5.67 83 5.34 83 5 83 C5 55.94 5 28.88 5 1 C3.35 1 1.7 1 0 1 C0 0.67 0 0.34 0 0 Z " fill="#142F43" transform="translate(705,512)"/>
<path d="M0 0 C0.66 0 1.32 0 2 0 C2 5.28 2 10.56 2 16 C6.62 16 11.24 16 16 16 C16.1938211 18.97888126 16.38035102 21.95790246 16.5625 24.9375 C16.61857422 25.78763672 16.67464844 26.63777344 16.73242188 27.51367188 C16.78076172 28.32255859 16.82910156 29.13144531 16.87890625 29.96484375 C16.9260376 30.7137085 16.97316895 31.46257324 17.02172852 32.23413086 C17 34 17 34 16 35 C13.4672235 35.07320163 10.96896082 35.09227569 8.4375 35.0625 C5.983125 35.041875 3.52875 35.02125 1 35 C1 39.95 1 44.9 1 50 C0.34 50 -0.32 50 -1 50 C-1 44.39 -1 38.78 -1 33 C4.28 33 9.56 33 15 33 C15 28.05 15 23.1 15 18 C10.05 18 5.1 18 0 18 C0 12.06 0 6.12 0 0 Z " fill="#2E182B" transform="translate(391,462)"/>
<path d="M0 0 C3.96 0 7.92 0 12 0 C12 3.3 12 6.6 12 10 C8.04 10 4.08 10 0 10 C0 6.7 0 3.4 0 0 Z " fill="#172542" transform="translate(304,583)"/>
<path d="M0 0 C3.96 0 7.92 0 12 0 C12 3.3 12 6.6 12 10 C8.04 10 4.08 10 0 10 C0 6.7 0 3.4 0 0 Z " fill="#081739" transform="translate(154,583)"/>
<path d="M0 0 C0.66 0 1.32 0 2 0 C2.33 7.92 2.66 15.84 3 24 C23.79 24.33 44.58 24.66 66 25 C66 25.33 66 25.66 66 26 C44.22 26 22.44 26 0 26 C0 17.42 0 8.84 0 0 Z " fill="#09152C" transform="translate(363,566)"/>
<path d="M0 0 C3.63 0 7.26 0 11 0 C11 3.3 11 6.6 11 10 C7.37 10 3.74 10 0 10 C0 6.7 0 3.4 0 0 Z " fill="#17213A" transform="translate(279,583)"/>
<path d="M0 0 C3.63 0 7.26 0 11 0 C11 3.3 11 6.6 11 10 C7.37 10 3.74 10 0 10 C0 6.7 0 3.4 0 0 Z " fill="#081536" transform="translate(255,583)"/>
<path d="M0 0 C3.63 0 7.26 0 11 0 C11 3.3 11 6.6 11 10 C7.37 10 3.74 10 0 10 C0 6.7 0 3.4 0 0 Z " fill="#081637" transform="translate(230,583)"/>
<path d="M0 0 C3.63 0 7.26 0 11 0 C11 3.3 11 6.6 11 10 C7.37 10 3.74 10 0 10 C0 6.7 0 3.4 0 0 Z " fill="#081332" transform="translate(205,583)"/>
<path d="M0 0 C3.63 0 7.26 0 11 0 C11 3.3 11 6.6 11 10 C7.37 10 3.74 10 0 10 C0 6.7 0 3.4 0 0 Z " fill="#071435" transform="translate(180,583)"/>
<path d="M0 0 C3.63 0 7.26 0 11 0 C11 3.3 11 6.6 11 10 C7.37 10 3.74 10 0 10 C0 6.7 0 3.4 0 0 Z " fill="#1F2941" transform="translate(317,567)"/>
<path d="M0 0 C3.63 0 7.26 0 11 0 C11 3.3 11 6.6 11 10 C7.37 10 3.74 10 0 10 C0 6.7 0 3.4 0 0 Z " fill="#19233F" transform="translate(292,567)"/>
<path d="M0 0 C3.63 0 7.26 0 11 0 C11 3.3 11 6.6 11 10 C7.37 10 3.74 10 0 10 C0 6.7 0 3.4 0 0 Z " fill="#262C49" transform="translate(217,567)"/>
<path d="M0 0 C3.96 0 7.92 0 12 0 C12 2.97 12 5.94 12 9 C8.04 9 4.08 9 0 9 C0 6.03 0 3.06 0 0 Z " fill="#0E1938" transform="translate(167,567)"/>
<path d="M0 0 C0.33 0 0.66 0 1 0 C1 4.29 1 8.58 1 13 C2.98 13 4.96 13 7 13 C7 15.31 7 17.62 7 20 C6.67 19.01 6.34 18.02 6 17 C4.68 17.33 3.36 17.66 2 18 C2 18.66 2 19.32 2 20 C0.00045254 20.04254356 -2.00041636 20.04080783 -4 20 C-5 19 -5 19 -5.1875 15.625 C-5 12 -5 12 -3 9 C-2.34 9 -1.68 9 -1 9 C-0.67 6.03 -0.34 3.06 0 0 Z " fill="#12253B" transform="translate(454,563)"/>
<path d="M0 0 C3.3 0 6.6 0 10 0 C10 3.3 10 6.6 10 10 C6.7 10 3.4 10 0 10 C0 6.7 0 3.4 0 0 Z " fill="#0D1A38" transform="translate(330,583)"/>
<path d="M0 0 C3.3 0 6.6 0 10 0 C10 3.3 10 6.6 10 10 C6.7 10 3.4 10 0 10 C0 6.7 0 3.4 0 0 Z " fill="#121832" transform="translate(268,567)"/>
<path d="M0 0 C4.29 0 8.58 0 13 0 C13 2.31 13 4.62 13 7 C16.96 7 20.92 7 25 7 C25 7.33 25 7.66 25 8 C21.7 8.33 18.4 8.66 15 9 C15 9.99 15 10.98 15 12 C17.97 12 20.94 12 24 12 C24 12.66 24 13.32 24 14 C20.7 14 17.4 14 14 14 C13.79375 13.21625 13.5875 12.4325 13.375 11.625 C12.19323388 8.69083714 12.19323388 8.69083714 8.875 7.6875 C7.92625 7.460625 6.9775 7.23375 6 7 C6 5.02 6 3.04 6 1 C4.02 1 2.04 1 0 1 C0 0.67 0 0.34 0 0 Z " fill="#2A213E" transform="translate(666,409)"/>
<path d="M0 0 C3.3 0 6.6 0 10 0 C10 2.97 10 5.94 10 9 C6.7 9 3.4 9 0 9 C0 6.03 0 3.06 0 0 Z " fill="#050F33" transform="translate(243,567)"/>
<path d="M0 0 C3.3 0 6.6 0 10 0 C10 2.64 10 5.28 10 8 C6.7 8 3.4 8 0 8 C0 5.36 0 2.72 0 0 Z " fill="#051031" transform="translate(193,568)"/>
<path d="M0 0 C2.31 0 4.62 0 7 0 C7 0.33 7 0.66 7 1 C5.35 1 3.7 1 2 1 C1.67 18.49 1.34 35.98 1 54 C0.67 54 0.34 54 0 54 C-0.16925301 48.23848942 -0.32961543 42.4768205 -0.48217773 36.71484375 C-0.53514564 34.75969996 -0.59043176 32.80461741 -0.64819336 30.84960938 C-1.26061637 10.01657633 -1.26061637 10.01657633 0 0 Z " fill="#031929" transform="translate(797,472)"/>
<path d="M0 0 C7.59 0 15.18 0 23 0 C23 3.63 23 7.26 23 11 C25.64 11 28.28 11 31 11 C31 12.65 31 14.3 31 16 C34.3 15.67 37.6 15.34 41 15 C41 15.99 41 16.98 41 18 C37.04 18 33.08 18 29 18 C29 16.02 29 14.04 29 12 C26.69 12 24.38 12 22 12 C22 8.37 22 4.74 22 1 C14.74 1 7.48 1 0 1 C0 0.67 0 0.34 0 0 Z " fill="#241934" transform="translate(848,404)"/>
<path d="M0 0 C0.33 0 0.66 0 1 0 C1.04951788 4.4840341 1.08577526 8.96792239 1.10986328 13.45214844 C1.11990744 14.97691623 1.13354531 16.50166484 1.15087891 18.02636719 C1.17519738 20.22075138 1.18649889 22.41488042 1.1953125 24.609375 C1.20578613 25.92905273 1.21625977 27.24873047 1.22705078 28.60839844 C1.01737061 31.74052414 0.86407418 33.50277144 -1 36 C-4.125 36.75 -4.125 36.75 -7 37 C-7 35.02 -7 33.04 -7 31 C-4.69 31 -2.38 31 0 31 C0 20.77 0 10.54 0 0 Z " fill="#C8523F" transform="translate(692,449)"/>
<path d="M0 0 C0.66 0 1.32 0 2 0 C2 5.28 2 10.56 2 16 C6.62 16 11.24 16 16 16 C16 16.66 16 17.32 16 18 C10.72 18 5.44 18 0 18 C0 12.06 0 6.12 0 0 Z " fill="#211628" transform="translate(391,462)"/>
<path d="M0 0 C1.98 0 3.96 0 6 0 C6 3.3 6 6.6 6 10 C4.02 10.33 2.04 10.66 0 11 C0 7.37 0 3.74 0 0 Z " fill="#1C3C4E" transform="translate(711,577)"/>
<path d="M0 0 C1.98 0 3.96 0 6 0 C6 3.63 6 7.26 6 11 C4.35 11 2.7 11 1 11 C0.67 7.37 0.34 3.74 0 0 Z " fill="#031B3C" transform="translate(691,423)"/>
<path d="M0 0 C2.31 0 4.62 0 7 0 C7 2.64 7 5.28 7 8 C4.69 8 2.38 8 0 8 C0 5.36 0 2.72 0 0 Z " fill="#111D3F" transform="translate(889,421)"/>
<path d="M0 0 C0.66 0 1.32 0 2 0 C2 0.99 2 1.98 2 3 C-12.19 2.67 -26.38 2.34 -41 2 C-41 1.67 -41 1.34 -41 1 C-39.79351807 1.00523682 -38.58703613 1.01047363 -37.34399414 1.01586914 C-32.88436622 1.03391611 -28.42474154 1.04543089 -23.96508789 1.05493164 C-22.03181415 1.05997256 -20.09854424 1.06680519 -18.1652832 1.07543945 C-15.39273128 1.08751565 -12.62022959 1.09323057 -9.84765625 1.09765625 C-8.97786636 1.10281754 -8.10807648 1.10797882 -7.21192932 1.11329651 C-5.14094186 1.11349185 -3.07005676 1.06208168 -1 1 C-0.67 0.67 -0.34 0.34 0 0 Z " fill="#01172F" transform="translate(573,602)"/>
<path d="M0 0 C0.66 0 1.32 0 2 0 C2 2.97 2 5.94 2 9 C4.97 9 7.94 9 11 9 C11 11.31 11 13.62 11 16 C12.98 16 14.96 16 17 16 C17 16.33 17 16.66 17 17 C14.69 17 12.38 17 10 17 C10 15.02 10 13.04 10 11 C6.7 11 3.4 11 0 11 C0 7.37 0 3.74 0 0 Z " fill="#CA5A39" transform="translate(871,424)"/>
<path d="M0 0 C3.96 0 7.92 0 12 0 C12 2.31 12 4.62 12 7 C14.31 7 16.62 7 19 7 C19 8.98 19 10.96 19 13 C18.608125 12.54625 18.21625 12.0925 17.8125 11.625 C15.69167513 9.72357081 13.66957765 8.93795972 11 8 C10.67 5.69 10.34 3.38 10 1 C6.7 1 3.4 1 0 1 C0 0.67 0 0.34 0 0 Z " fill="#AD4353" transform="translate(877,422)"/>
<path d="M0 0 C0.33 0 0.66 0 1 0 C1 3.96 1 7.92 1 12 C-1.31 12 -3.62 12 -6 12 C-5.85892253 13.45880109 -5.71197585 14.91703551 -5.5625 16.375 C-5.48128906 17.18710937 -5.40007812 17.99921875 -5.31640625 18.8359375 C-5.10909886 21.04272805 -5.10909886 21.04272805 -4 23 C-6.31 23 -8.62 23 -11 23 C-10.01 22.67 -9.02 22.34 -8 22 C-7.67 18.37 -7.34 14.74 -7 11 C-5.35 10.67 -3.7 10.34 -2 10 C-1.34 9.67 -0.68 9.34 0 9 C0 6.03 0 3.06 0 0 Z " fill="#30394D" transform="translate(143,557)"/>
<path d="M0 0 C1.98 0 3.96 0 6 0 C5.67 0.66 5.34 1.32 5 2 C3.68 2 2.36 2 1 2 C1.020625 2.804375 1.04125 3.60875 1.0625 4.4375 C1 7 1 7 0 8 C-1.66617115 8.04063832 -3.33388095 8.042721 -5 8 C-5 8.99 -5 9.98 -5 11 C-3.35 11 -1.7 11 0 11 C0 11.33 0 11.66 0 12 C-2.31 12.33 -4.62 12.66 -7 13 C-7 10.69 -7 8.38 -7 6 C-4.69 6 -2.38 6 0 6 C0 4.02 0 2.04 0 0 Z " fill="#CC583F" transform="translate(672,493)"/>
<path d="M0 0 C3.63 0 7.26 0 11 0 C11 1.98 11 3.96 11 6 C10.67 5.34 10.34 4.68 10 4 C7.03 4 4.06 4 1 4 C0.67 2.68 0.34 1.36 0 0 Z " fill="#031D3D" transform="translate(680,417)"/>
<path d="M0 0 C0.33 0 0.66 0 1 0 C1 2.31 1 4.62 1 7 C2.98 7 4.96 7 7 7 C7 10.3 7 13.6 7 17 C6.67 17 6.34 17 6 17 C6 14.03 6 11.06 6 8 C4.35 8 2.7 8 1 8 C1 11.63 1 15.26 1 19 C0.67 19 0.34 19 0 19 C-0.1968121 16.95920995 -0.38202831 14.91729993 -0.5625 12.875 C-0.66691406 11.73804688 -0.77132813 10.60109375 -0.87890625 9.4296875 C-0.99608016 6.11102007 -0.6655072 3.2437314 0 0 Z " fill="#E0E0D3" transform="translate(435,557)"/>
<path d="M0 0 C0.33 0.66 0.66 1.32 1 2 C-3.455 2.495 -3.455 2.495 -8 3 C-8.33 5.31 -8.66 7.62 -9 10 C-11.64 10 -14.28 10 -17 10 C-17 9.67 -17 9.34 -17 9 C-15.02 9 -13.04 9 -11 9 C-11 6.36 -11 3.72 -11 1 C-5.555 0.505 -5.555 0.505 0 0 Z " fill="#C9C6C1" transform="translate(139,579)"/>
<path d="M0 0 C3.3 0 6.6 0 10 0 C10 2.97 10 5.94 10 9 C9.67 9 9.34 9 9 9 C9 6.69 9 4.38 9 2 C6.69 2 4.38 2 2 2 C1.67 4.31 1.34 6.62 1 9 C0.67 9 0.34 9 0 9 C0 6.03 0 3.06 0 0 Z " fill="#171D35" transform="translate(243,567)"/>
<path d="M0 0 C1.65 0 3.3 0 5 0 C5 1.98 5 3.96 5 6 C3.35 6 1.7 6 0 6 C0 4.02 0 2.04 0 0 Z " fill="#355B6A" transform="translate(890,596)"/>
<path d="M0 0 C0 1.98 0 3.96 0 6 C-2.97 5.505 -2.97 5.505 -6 5 C-5.625 3.0625 -5.625 3.0625 -5 1 C-3 0 -3 0 0 0 Z " fill="#031A40" transform="translate(673,403)"/>
<path d="M0 0 C-1.485 2.475 -1.485 2.475 -3 5 C-1.35 5 0.3 5 2 5 C2 5.33 2 5.66 2 6 C0.02 6 -1.96 6 -4 6 C-4 4.68 -4 3.36 -4 2 C-7.3 2 -10.6 2 -14 2 C-14 1.67 -14 1.34 -14 1 C-9.27616037 0.34843591 -4.78025483 -0.11950637 0 0 Z " fill="#1F102E" transform="translate(670,403)"/>
<path d="M0 0 C2.64 0 5.28 0 8 0 C8 1.65 8 3.3 8 5 C7.01 5 6.02 5 5 5 C5 4.34 5 3.68 5 3 C2.525 2.01 2.525 2.01 0 1 C0 0.67 0 0.34 0 0 Z " fill="#CF414F" transform="translate(195,506)"/>
<path d="M0 0 C0.99 0 1.98 0 3 0 C3 2.31 3 4.62 3 7 C1.35 7 -0.3 7 -2 7 C-1.34 4.69 -0.68 2.38 0 0 Z " fill="#DC424C" transform="translate(200,409)"/>
<path d="M0 0 C0.763125 0.474375 1.52625 0.94875 2.3125 1.4375 C4.96410548 3.10106097 4.96410548 3.10106097 8 4 C8.33 6.31 8.66 8.62 9 11 C8.34 11 7.68 11 7 11 C7 9.02 7 7.04 7 5 C4.69 5 2.38 5 0 5 C0 3.35 0 1.7 0 0 Z " fill="#C5493B" transform="translate(672,430)"/>
<path d="M0 0 C1.65 0 3.3 0 5 0 C4.01 0.33 3.02 0.66 2 1 C2 2.32 2 3.64 2 5 C3.65 5 5.3 5 7 5 C7 5.33 7 5.66 7 6 C4.69 6.33 2.38 6.66 0 7 C0 4.69 0 2.38 0 0 Z " fill="#DA783B" transform="translate(665,499)"/>
<path d="M0 0 C3.3 0 6.6 0 10 0 C9.67 0.66 9.34 1.32 9 2 C6.67843403 2.40729228 4.3431213 2.74438677 2 3 C1.34 2.01 0.68 1.02 0 0 Z " fill="#042049" transform="translate(159,605)"/>
<path d="M0 0 C1.4540625 0.0309375 1.4540625 0.0309375 2.9375 0.0625 C2.9375 0.7225 2.9375 1.3825 2.9375 2.0625 C1.2875 2.0625 -0.3625 2.0625 -2.0625 2.0625 C-2.0625 3.3825 -2.0625 4.7025 -2.0625 6.0625 C-2.7225 6.0625 -3.3825 6.0625 -4.0625 6.0625 C-4.105221 4.39638095 -4.10313832 2.72867115 -4.0625 1.0625 C-3.0625 0.0625 -3.0625 0.0625 0 0 Z " fill="#311E3E" transform="translate(874.0625,581.9375)"/>
<path d="M0 0 C1.65 0 3.3 0 5 0 C4.67 1.32 4.34 2.64 4 4 C2.68 4 1.36 4 0 4 C0 2.68 0 1.36 0 0 Z " fill="#C73E4B" transform="translate(687,481)"/>
<path d="M0 0 C2.22189824 2.22189824 2.92598892 4.08482708 4 7 C1.69 7 -0.62 7 -3 7 C-2.01 6.67 -1.02 6.34 0 6 C0 4.02 0 2.04 0 0 Z " fill="#1E2B48" transform="translate(135,573)"/>
<path d="M0 0 C0.33 0 0.66 0 1 0 C1 2.31 1 4.62 1 7 C-1.31 7 -3.62 7 -6 7 C-4 5 -4 5 -1 4 C-0.26676204 1.98491642 -0.26676204 1.98491642 0 0 Z " fill="#F79B52" transform="translate(876,556)"/>
</svg>
