<svg xmlns="http://www.w3.org/2000/svg" xmlns:xlink="http://www.w3.org/1999/xlink" width="500" zoomAndPan="magnify" viewBox="0 0 375 374.999991" height="500" preserveAspectRatio="xMidYMid meet" version="1.0"><defs><clipPath id="id1"><path d="M 50.453125 0 L 337.703125 0 L 337.703125 375 L 50.453125 375 Z M 50.453125 0 " clip-rule="nonzero"/></clipPath></defs><g clip-path="url(#id1)"><path stroke-linecap="butt" transform="matrix(0.19505, 0, 0, -0.194906, -220.693575, 601.871096)" fill="none" stroke-linejoin="miter" d="M 1710.192494 2958.791531 L 1452.505727 2958.791531 C 1452.505727 2958.791531 1416.797675 2432.196707 1836.502468 2487.39146 " stroke="#fabb4c" stroke-width="120" stroke-opacity="1" stroke-miterlimit="10"/><path stroke-linecap="butt" transform="matrix(0.19505, 0, 0, -0.194906, -220.693575, 601.871096)" fill="none" stroke-linejoin="miter" d="M 2541.791757 2958.791312 L 2799.49857 2958.791312 C 2799.49857 2958.791312 2835.206625 2432.196527 2415.501801 2487.391276 " stroke="#fabb4c" stroke-width="120" stroke-opacity="1" stroke-miterlimit="10"/></g><path fill="#fabb4c" d="M 104.921875 -0.0195312 L 104.921875 67.730469 C 108.023438 186.546875 183.742188 185.746094 183.742188 185.746094 L 183.742188 259.03125 L 204.222656 259.03125 L 204.222656 185.746094 C 204.222656 185.746094 279.941406 186.546875 283.0625 67.730469 L 283.0625 -0.0195312 L 104.921875 -0.0195312 " fill-opacity="1" fill-rule="nonzero"/><path fill="#fabb4c" d="M 204.222656 259.03125 L 183.742188 259.03125 L 157.019531 282.945312 L 230.945312 282.945312 L 204.222656 259.03125 " fill-opacity="1" fill-rule="nonzero"/><path fill="#3d4176" d="M 281.792969 358.277344 L 106.171875 358.277344 L 106.171875 282.945312 L 281.792969 282.945312 L 281.792969 358.277344 " fill-opacity="1" fill-rule="nonzero"/><path fill="#2c2d53" d="M 299.816406 375.019531 L 87.035156 375.019531 L 87.035156 358.277344 L 299.816406 358.277344 L 299.816406 375.019531 " fill-opacity="1" fill-rule="nonzero"/><path fill="#fabb4c" d="M 240.695312 340.949219 L 147.269531 340.949219 L 147.269531 300.292969 L 240.695312 300.292969 L 240.695312 340.949219 " fill-opacity="1" fill-rule="nonzero"/><path fill="#fff766" d="M 193.980469 29.136719 L 207.753906 57.03125 L 238.589844 61.511719 L 216.277344 83.246094 L 221.542969 113.902344 L 193.980469 99.421875 L 166.421875 113.902344 L 171.6875 83.246094 L 149.375 61.511719 L 180.210938 57.03125 L 193.980469 29.136719 " fill-opacity="1" fill-rule="nonzero"/></svg>